<mxfile host="Electron" agent="Mozilla/5.0 (Macintosh; Intel Mac OS X 10_15_7) AppleWebKit/537.36 (KHTML, like Gecko) draw.io/26.0.4 Chrome/128.0.6613.186 Electron/32.2.5 Safari/537.36" version="26.0.4">
  <diagram name="Page-1" id="NycsaYWVNly4ClJ4pqPx">
    <mxGraphModel dx="1242" dy="793" grid="1" gridSize="10" guides="1" tooltips="1" connect="1" arrows="1" fold="1" page="1" pageScale="1" pageWidth="827" pageHeight="1169" math="0" shadow="0">
      <root>
        <mxCell id="0" />
        <mxCell id="1" parent="0" />
        <mxCell id="rx8Ky6wCKxJs3BDUqqdd-1" value="MikhailKravets/python-crash-course" style="rounded=1;whiteSpace=wrap;html=1;sketch=1;curveFitting=1;jiggle=2;fillColor=#d5e8d4;strokeColor=#82b366;fontFamily=Fira Mono;fontSize=16;" vertex="1" parent="1">
          <mxGeometry x="80" y="160" width="360" height="40" as="geometry" />
        </mxCell>
        <mxCell id="rx8Ky6wCKxJs3BDUqqdd-2" value="&amp;lt;your-remote&amp;gt;/python-crash-course" style="rounded=1;whiteSpace=wrap;html=1;sketch=1;curveFitting=1;jiggle=2;fillColor=#b0e3e6;strokeColor=#0e8088;fontFamily=Fira Mono;fontSize=16;" vertex="1" parent="1">
          <mxGeometry x="560" y="160" width="360" height="40" as="geometry" />
        </mxCell>
        <mxCell id="rx8Ky6wCKxJs3BDUqqdd-7" style="edgeStyle=orthogonalEdgeStyle;rounded=0;orthogonalLoop=1;jettySize=auto;html=1;exitX=1;exitY=0.5;exitDx=0;exitDy=0;exitPerimeter=0;entryX=0.5;entryY=1;entryDx=0;entryDy=0;" edge="1" parent="1" source="rx8Ky6wCKxJs3BDUqqdd-3" target="rx8Ky6wCKxJs3BDUqqdd-2">
          <mxGeometry relative="1" as="geometry" />
        </mxCell>
        <mxCell id="rx8Ky6wCKxJs3BDUqqdd-3" value="" style="sketch=1;aspect=fixed;pointerEvents=1;shadow=0;dashed=0;html=1;strokeColor=#b85450;labelPosition=center;verticalLabelPosition=bottom;verticalAlign=top;align=center;fillColor=#f8cecc;shape=mxgraph.azure.computer;curveFitting=1;jiggle=2;" vertex="1" parent="1">
          <mxGeometry x="415.56" y="390" width="144.44" height="130" as="geometry" />
        </mxCell>
        <mxCell id="rx8Ky6wCKxJs3BDUqqdd-4" style="edgeStyle=orthogonalEdgeStyle;rounded=0;orthogonalLoop=1;jettySize=auto;html=1;exitX=0.5;exitY=1;exitDx=0;exitDy=0;entryX=0;entryY=0.5;entryDx=0;entryDy=0;entryPerimeter=0;" edge="1" parent="1" source="rx8Ky6wCKxJs3BDUqqdd-1" target="rx8Ky6wCKxJs3BDUqqdd-3">
          <mxGeometry relative="1" as="geometry" />
        </mxCell>
        <mxCell id="rx8Ky6wCKxJs3BDUqqdd-6" value="git pull origin" style="text;html=1;align=center;verticalAlign=middle;whiteSpace=wrap;rounded=0;fontFamily=Fira Mono;fontSize=16;" vertex="1" parent="1">
          <mxGeometry x="260" y="290" width="180" height="30" as="geometry" />
        </mxCell>
        <mxCell id="rx8Ky6wCKxJs3BDUqqdd-8" value="git push upstream" style="text;html=1;align=center;verticalAlign=middle;whiteSpace=wrap;rounded=0;fontFamily=Fira Mono;fontSize=16;" vertex="1" parent="1">
          <mxGeometry x="560" y="330" width="180" height="30" as="geometry" />
        </mxCell>
        <mxCell id="rx8Ky6wCKxJs3BDUqqdd-9" value="git clone" style="text;html=1;align=left;verticalAlign=middle;whiteSpace=wrap;rounded=0;fontFamily=Fira Mono;fontSize=16;" vertex="1" parent="1">
          <mxGeometry x="80" y="90" width="140" height="30" as="geometry" />
        </mxCell>
        <mxCell id="rx8Ky6wCKxJs3BDUqqdd-11" value="this remote is set as `origin`" style="text;html=1;align=left;verticalAlign=middle;whiteSpace=wrap;rounded=0;fontFamily=Fira Mono;fontSize=16;" vertex="1" parent="1">
          <mxGeometry x="80" y="130" width="360" height="30" as="geometry" />
        </mxCell>
        <mxCell id="rx8Ky6wCKxJs3BDUqqdd-12" value="git remote add upstream &amp;lt;url&amp;gt;" style="text;html=1;align=left;verticalAlign=middle;whiteSpace=wrap;rounded=0;fontFamily=Fira Mono;fontSize=16;" vertex="1" parent="1">
          <mxGeometry x="560" y="130" width="360" height="30" as="geometry" />
        </mxCell>
      </root>
    </mxGraphModel>
  </diagram>
</mxfile>
